<svg xmlns="http://www.w3.org/2000/svg" xmlns:svg="http://www.w3.org/2000/svg" id="svg8" width="256" height="256" version="1.1" viewBox="0 0 67.733 67.733"><metadata id="metadata5"/><g id="layer1" transform="translate(-157.08616,-98.021958)"><g id="g1019" transform="matrix(0.39750359,0,0,0.39750359,104.68265,59.057878)"><g id="g1001"><path d="m 200.04843,151.92997 c -35.54945,2.7131 -44.49038,26.965 -42.75954,49.64591 1.67459,21.94366 5.99585,39.69413 22.82615,54.73309 5.9439,5.31127 18.54219,10.34823 28.8149,11.99742 1.39328,0.22367 2.87787,0.11039 4.22107,-0.32212 9.90335,-3.18888 21.59078,-10.07883 26.6602,-16.23088 14.35336,-17.41867 15.93109,-35.61932 14.25651,-57.56298 C 252.33687,171.5094 239.81987,148.8949 204.27,151.60781 Z" style="fill:#57e389;stroke-width:2.11667;paint-order:markers stroke fill" id="path847"/><path d="m 210.66882,151.38999 c -1.11434,-0.0121 -2.25709,0.006 -3.42357,0.0501 29.25601,1.15911 39.94157,21.92503 41.5308,42.75036 1.67458,21.94366 0.0969,40.14474 -14.25649,57.56342 -5.06942,6.15205 -16.75704,13.04166 -26.66039,16.23053 -0.096,0.0309 -0.19405,0.0566 -0.29145,0.0842 0.45758,0.0849 0.91275,0.16608 1.36219,0.23823 1.39328,0.22365 2.87773,0.11004 4.22093,-0.32247 9.90335,-3.18887 21.59097,-10.07848 26.66039,-16.23053 14.35336,-17.41868 15.93107,-35.61976 14.25649,-57.56342 -1.62267,-21.26345 -12.72521,-42.46829 -43.3989,-42.80049 z" style="fill:#35ce87;fill-opacity:1;stroke-width:2.11667;paint-order:markers stroke fill" id="path981"/><circle id="path859" cx="184.098" cy="186.17" r="5.514" transform="rotate(-4.363942)" style="fill:#33d17a;fill-opacity:1;stroke:none;stroke-width:1.42415;paint-order:markers stroke fill"/><circle transform="rotate(-4.363942)" style="fill:#33d17a;fill-opacity:1;stroke:none;stroke-width:1.42415;paint-order:markers stroke fill" id="circle861" cx="220.834" cy="196.238" r="5.514"/><circle id="circle863" cx="163.378" cy="210.09" r="5.514" transform="rotate(-4.363942)" style="fill:#33d17a;fill-opacity:1;stroke:none;stroke-width:1.42415;paint-order:markers stroke fill"/><circle transform="rotate(-4.363942)" style="fill:#33d17a;fill-opacity:1;stroke:none;stroke-width:1.42415;paint-order:markers stroke fill" id="circle865" cx="220.003" cy="246.798" r="5.514"/><circle transform="rotate(-4.363942)" style="fill:#33d17a;fill-opacity:1;stroke:none;stroke-width:1.42415;paint-order:markers stroke fill" id="circle867" cx="163.315" cy="240.881" r="5.514"/><circle id="circle941" cx="187.821" cy="261.857" r="5.514" style="fill:#33d17a;fill-opacity:1;stroke:none;stroke-width:1.42415;paint-order:markers stroke fill" transform="rotate(-4.363942)"/><circle transform="rotate(-4.363942)" style="fill:#33d17a;fill-opacity:1;stroke:none;stroke-width:1.42415;paint-order:markers stroke fill" id="circle943" cx="197.617" cy="219.87" r="5.514"/><path d="m 257.66364,100.34328 c -14.44036,-5.383297 -29.20867,-1.533645 -34.60051,12.92954 -5.21656,13.99299 -8.23411,31.3442 -2.14954,45.39953 2.14899,4.96416 7.65746,8.29576 11.30716,9.9194 3.82189,1.16175 10.16699,2.24914 15.04118,-0.0968 13.80056,-6.64219 22.87783,-21.73435 28.09439,-35.72734 5.39184,-14.46319 -3.25234,-27.04097 -17.69268,-32.42434 z" style="fill:#db5793;fill-opacity:1;stroke-width:1.43632;paint-order:markers stroke fill" id="path830"/><circle transform="rotate(20.445352)" style="fill:#c82d72;fill-opacity:1;stroke:none;stroke-width:1.43632;paint-order:markers stroke fill" id="circle869" cx="278.799" cy="22.233" r="5.561"/><circle id="circle871" cx="283.725" cy="57.653" r="5.561" transform="rotate(20.445352)" style="fill:#c82d72;fill-opacity:1;stroke:none;stroke-width:1.43632;paint-order:markers stroke fill"/><circle transform="rotate(20.445352)" style="fill:#c82d72;fill-opacity:1;stroke:none;stroke-width:1.43632;paint-order:markers stroke fill" id="circle873" cx="264.433" cy="38.175" r="5.561"/><g style="fill:#d64487;fill-opacity:1" id="g966" transform="matrix(0.63582927,0.23703585,-0.23703585,0.63582927,177.4571,44.4279)"><path id="path964" d="m 948.31836,370.47852 c -3.55058,-0.0206 -7.05795,0.13203 -10.51367,0.44726 11.8096,1.02637 23.95465,3.81848 36.04101,8.32422 54.5777,20.3466 87.2497,67.8848 66.8711,122.54883 -19.7161,52.88689 -54.024,109.92691 -106.1836,135.03125 -5.08325,2.44656 -10.59046,3.90334 -16.20312,4.64062 11.87578,1.3258 25.05343,0.72571 36.20312,-4.64062 52.1596,-25.10434 86.4675,-82.14436 106.1836,-135.03125 20.3786,-54.66401 -12.2934,-102.20223 -66.8711,-122.54883 -15.34999,-5.7224 -30.79725,-8.68585 -45.52734,-8.77148 z" transform="matrix(0.36534782,-0.13620092,0.13620092,0.36534782,-275.21758,32.726606)" style="fill:#d64487;fill-opacity:1;stroke-width:5.42861;paint-order:markers stroke fill"/></g></g></g></g></svg>